<?xml version="1.0" encoding="utf-8"?>
<!-- Generator: Adobe Illustrator 16.0.0, SVG Export Plug-In . SVG Version: 6.00 Build 0)  -->
<!DOCTYPE svg PUBLIC "-//W3C//DTD SVG 1.1//EN" "http://www.w3.org/Graphics/SVG/1.1/DTD/svg11.dtd">
<svg version="1.1" id="圖層_1" xmlns="http://www.w3.org/2000/svg" xmlns:xlink="http://www.w3.org/1999/xlink" x="0px" y="0px"
	 width="2048px" height="2048px" viewBox="0 0 2048 2048" enable-background="new 0 0 2048 2048" xml:space="preserve">
<g>
	
		<path fill-rule="evenodd" clip-rule="evenodd" fill="none" stroke="#000000" stroke-linecap="round" stroke-linejoin="round" stroke-miterlimit="10" d="
		M1716.285,2050.243c-16.878,2.37-31.353-6.714-46.918-10.325c-44.875-10.408-89.699-21.28-133.992-33.904
		c-75.974-21.656-150.567-47.218-220.059-85.721c-18.33-10.157-35.681-21.598-51.032-35.968c-2.253-2.107-5.274-3.394-7.941-5.061"
		/>
	
		<path fill-rule="evenodd" clip-rule="evenodd" fill="none" stroke="#000000" stroke-linecap="round" stroke-linejoin="round" stroke-miterlimit="10" d="
		M1426.167,1336.667c1.25,6.417,14.147,5.244,18.5,5.25c19.098,0.024,27.845-12.963,37.646-28.582
		c23.003-36.659,46.179-73.211,68.928-110.025c14.733-23.843,23.206-49.866,25.079-77.949c1.245-18.671,4.265-37.392,3.546-55.978
		c-0.78-20.176-1.978-40.558-9.355-60.087c-8.112-21.471-26.988-30.729-49.174-13.885c-7.168,5.442-36.055,27.669-36.99,32.886"/>
	
		<path fill-rule="evenodd" clip-rule="evenodd" fill="none" stroke="#000000" stroke-linecap="round" stroke-linejoin="round" stroke-miterlimit="10" d="
		M1564.304,1044.369c-2.667-4.666-4.941-9.62-8.104-13.922c-3.546-4.828-7.54-4.185-11.955-0.144
		c-18.688,17.101-31.833,38.248-43.799,60.133c-7.068,12.929-12.836,26.573-19.064,39.953c-0.51,1.096-0.34,2.703-0.025,3.958
		c2.928,11.683,5.661,23.428,9.041,34.981c3.309,11.311,3.09,21.835-5.12,30.988c-8.503,9.479-17.338,18.657-25.922,28.063
		c-1.602,1.755-15.594,15.41-15.865,17.546"/>
	
		<path fill-rule="evenodd" clip-rule="evenodd" fill="none" stroke="#000000" stroke-linecap="round" stroke-linejoin="round" stroke-miterlimit="10" d="
		M1262.974,1635.546c0,0-1.441,15.477-1.713,17.737c-2.528,21.014-6.086,41.94-7.722,63.018
		c-2.426,31.271-4.231,62.627-4.933,93.979c-0.425,18.965,0.24,38.215,3.063,56.938c5.13,34.015,9.57,68.396,24.621,100.06
		c0.388,0.815,0.049,1.977,0.049,2.976"/>
	
		<path fill-rule="evenodd" clip-rule="evenodd" fill="none" stroke="#000000" stroke-linecap="round" stroke-linejoin="round" stroke-miterlimit="10" d="
		M1501.312,1093.363c13.56,8.169,15.89,22.745,19.864,36.035c8.867,29.66-1.536,56.146-14.878,81.943
		c-1.233,2.384-2.653,4.673-3.986,7.006"/>
	
		<path fill-rule="evenodd" clip-rule="evenodd" fill="none" stroke="#000000" stroke-linecap="round" stroke-linejoin="round" stroke-miterlimit="10" d="
		M1553.305,1049.368c5.389,15.319,3.875,31.232,3.947,46.994c0.019,3.999-0.614,7.999-0.947,11.999"/>
	
		<path fill-rule="evenodd" clip-rule="evenodd" fill="none" stroke="#000000" stroke-linecap="round" stroke-linejoin="round" stroke-miterlimit="10" d="
		M1492.313,1234.346c-6.378,9.639-14.434,16.537-25.868,20.377c-6.7,2.25-12.127,8.286-18.126,12.619"/>
	
		<path fill-rule="evenodd" clip-rule="evenodd" fill="none" stroke="#000000" stroke-linecap="round" stroke-linejoin="round" stroke-miterlimit="10" d="
		M1534.308,1184.352c-5.999,9.999-11.999,19.998-17.998,29.996"/>
</g>
<g>
	
		<path fill-rule="evenodd" clip-rule="evenodd" fill="none" stroke="#000000" stroke-linecap="round" stroke-linejoin="round" stroke-miterlimit="10" d="
		M1687.221,2044.487c9.63,2.655,18.628,7.484,29.064,5.756"/>
	
		<path fill-rule="evenodd" clip-rule="evenodd" fill="none" stroke="#000000" stroke-linecap="round" stroke-linejoin="round" stroke-miterlimit="10" d="
		M1033.368,1790.227"/>
</g>
<g>
	
		<path fill-rule="evenodd" clip-rule="evenodd" fill="none" stroke="#000000" stroke-linecap="round" stroke-linejoin="round" stroke-miterlimit="10" d="
		M330.463,2050.242"/>
</g>
<g>
	
		<path fill-rule="evenodd" clip-rule="evenodd" fill="none" stroke="#000000" stroke-linecap="round" stroke-linejoin="round" stroke-miterlimit="10" d="
		M359.528,2044.486c-9.63,2.656-18.628,7.484-29.064,5.756"/>
	
		<path fill-rule="evenodd" clip-rule="evenodd" fill="none" stroke="#000000" stroke-linecap="round" stroke-linejoin="round" stroke-miterlimit="10" d="
		M1013.38,1790.227"/>
</g>
<path fill="none" stroke="#000000" stroke-linecap="round" stroke-linejoin="round" stroke-miterlimit="10" d="M1023.374,170.891"/>
<g>
	
		<path fill-rule="evenodd" clip-rule="evenodd" fill="none" stroke="#000000" stroke-linecap="round" stroke-linejoin="round" stroke-miterlimit="10" d="
		M330.463,2050.243c16.878,2.37,31.353-6.714,46.918-10.325c44.875-10.408,89.699-21.28,133.992-33.904
		c75.974-21.656,150.567-47.218,220.059-85.721c18.33-10.157,35.681-21.598,51.032-35.968c2.253-2.107,5.274-3.394,7.941-5.061"/>
	
		<path fill-rule="evenodd" clip-rule="evenodd" fill="none" stroke="#000000" stroke-linecap="round" stroke-linejoin="round" stroke-miterlimit="10" d="
		M620.581,1336.667c-1.25,6.417-14.147,5.244-18.5,5.25c-19.098,0.024-27.845-12.963-37.646-28.582
		c-23.003-36.659-46.179-73.211-68.928-110.025c-14.733-23.843-23.206-49.866-25.079-77.949
		c-1.245-18.671-4.265-37.392-3.546-55.978c0.78-20.176,1.978-40.558,9.355-60.087c8.112-21.471,26.988-30.729,49.174-13.885
		c7.168,5.442,36.055,27.669,36.99,32.886"/>
	
		<path fill-rule="evenodd" clip-rule="evenodd" fill="none" stroke="#000000" stroke-linecap="round" stroke-linejoin="round" stroke-miterlimit="10" d="
		M482.445,1044.369c2.667-4.666,4.941-9.62,8.104-13.922c3.546-4.828,7.54-4.185,11.955-0.144
		c18.688,17.101,31.833,38.248,43.799,60.133c7.068,12.929,12.836,26.573,19.064,39.953c0.51,1.096,0.34,2.703,0.025,3.958
		c-2.928,11.683-5.661,23.428-9.041,34.981c-3.309,11.311-3.09,21.835,5.12,30.988c8.503,9.479,17.338,18.657,25.922,28.063
		c1.602,1.755,15.594,15.41,15.865,17.546"/>
	
		<path fill-rule="evenodd" clip-rule="evenodd" fill="none" stroke="#000000" stroke-linecap="round" stroke-linejoin="round" stroke-miterlimit="10" d="
		M783.775,1635.546c0,0,1.441,15.477,1.713,17.737c2.528,21.014,6.086,41.94,7.722,63.018c2.426,31.271,4.231,62.627,4.933,93.979
		c0.425,18.965-0.24,38.215-3.063,56.938c-5.13,34.015-9.57,68.396-24.621,100.06c-0.388,0.815-0.049,1.977-0.049,2.976"/>
	
		<path fill-rule="evenodd" clip-rule="evenodd" fill="none" stroke="#000000" stroke-linecap="round" stroke-linejoin="round" stroke-miterlimit="10" d="
		M545.437,1093.363c-13.56,8.169-15.89,22.745-19.864,36.035c-8.867,29.66,1.536,56.146,14.878,81.943
		c1.233,2.384,2.653,4.673,3.986,7.006"/>
	
		<path fill-rule="evenodd" clip-rule="evenodd" fill="none" stroke="#000000" stroke-linecap="round" stroke-linejoin="round" stroke-miterlimit="10" d="
		M493.444,1049.368c-5.389,15.319-3.875,31.232-3.947,46.994c-0.019,3.999,0.614,7.999,0.947,11.999"/>
	
		<path fill-rule="evenodd" clip-rule="evenodd" fill="none" stroke="#000000" stroke-linecap="round" stroke-linejoin="round" stroke-miterlimit="10" d="
		M554.436,1234.346c6.378,9.639,14.434,16.537,25.868,20.377c6.7,2.25,12.127,8.286,18.126,12.619"/>
	
		<path fill-rule="evenodd" clip-rule="evenodd" fill="none" stroke="#000000" stroke-linecap="round" stroke-linejoin="round" stroke-miterlimit="10" d="
		M512.441,1184.352c5.999,9.999,11.999,19.998,17.998,29.996"/>
</g>
<g>
	
		<path fill-rule="evenodd" clip-rule="evenodd" fill="none" stroke="#000000" stroke-linecap="round" stroke-linejoin="round" stroke-miterlimit="10" d="
		M359.528,2044.487c-9.63,2.655-18.628,7.484-29.064,5.756"/>
	
		<path fill-rule="evenodd" clip-rule="evenodd" fill="none" stroke="#000000" stroke-linecap="round" stroke-linejoin="round" stroke-miterlimit="10" d="
		M1013.38,1790.227"/>
</g>
<g>
	
		<path fill-rule="evenodd" clip-rule="evenodd" fill="none" stroke="#000000" stroke-linecap="round" stroke-linejoin="round" stroke-miterlimit="10" d="
		M1023.374,255.083c-13.084,0-26.418,0.167-53.996,2.333s-73.668,6.493-145.043,34.88c-49.931,19.86-94.337,47.837-134.027,84.035
		c-49.551,45.19-85.357,99.806-110.581,161.222c-22.715,55.309-35.481,113.365-42.509,172.831
		c-5.782,48.923-8.866,77.238-0.47,146.115s13.062,105.305,36.016,228.374s55.588,291.476,55.588,291.476
		c11.811,39.654,22.075,79.736,40.874,117.061c16.493,32.749,37.985,61.78,62.334,88.76c16.565,18.355,51.897,53.075,51.897,53.075
		s10.242,9.701,11.9,11.104c14.08,11.902,27.762,24.291,42.095,35.874c41.996,33.94,83.479,68.674,131.001,94.928
		c16.898,9.336,31.998,13.076,54.921,13.076s38.022-3.74,54.921-13.076c47.521-26.254,89.005-60.987,131.001-94.928
		c14.333-11.583,28.015-23.972,42.095-35.874c1.658-1.402,11.9-11.104,11.9-11.104s35.332-34.72,51.897-53.075
		c24.349-26.979,45.841-56.011,62.334-88.76c18.799-37.324,29.063-77.406,40.874-117.061c0,0,32.634-168.406,55.588-291.476
		S1501.604,925.377,1510,856.5s5.313-97.192-0.47-146.115c-7.027-59.466-19.794-117.522-42.509-172.831
		c-25.224-61.416-61.03-116.031-110.581-161.222c-39.69-36.198-84.097-64.175-134.027-84.035
		c-71.375-28.387-117.465-32.713-145.043-34.88S1036.458,255.083,1023.374,255.083z"/>
	
		<path fill-rule="evenodd" clip-rule="evenodd" fill="none" stroke="#000000" stroke-linecap="round" stroke-linejoin="round" stroke-miterlimit="10" d="
		M1716.285,2050.242"/>
</g>
<g>
	
		<path fill-rule="evenodd" clip-rule="evenodd" fill="none" stroke="#000000" stroke-linecap="round" stroke-linejoin="round" stroke-miterlimit="10" d="
		M1687.221,2044.486c9.63,2.656,18.628,7.484,29.064,5.756"/>
	
		<path fill-rule="evenodd" clip-rule="evenodd" fill="none" stroke="#000000" stroke-linecap="round" stroke-linejoin="round" stroke-miterlimit="10" d="
		M1033.368,1790.227"/>
</g>
<path fill="none" stroke="#000000" stroke-linecap="round" stroke-linejoin="round" stroke-miterlimit="10" d="M1023.374,170.891"/>
</svg>
