<?xml version="1.0" encoding="utf-8"?>
<!-- Generator: Adobe Illustrator 16.0.0, SVG Export Plug-In . SVG Version: 6.00 Build 0)  -->
<!DOCTYPE svg PUBLIC "-//W3C//DTD SVG 1.1//EN" "http://www.w3.org/Graphics/SVG/1.1/DTD/svg11.dtd">
<svg version="1.1" id="圖層_1" xmlns="http://www.w3.org/2000/svg" xmlns:xlink="http://www.w3.org/1999/xlink" x="0px" y="0px"
	 width="2048px" height="2048px" viewBox="0 0 2048 2048" enable-background="new 0 0 2048 2048" xml:space="preserve">
<path fill="none" stroke="#000000" stroke-linecap="round" stroke-linejoin="round" stroke-miterlimit="10" d="M1716.284,2050.243
	c-16.878,2.37-31.353-6.714-46.918-10.325c-44.875-10.408-89.698-21.28-133.991-33.904c-75.975-21.655-150.567-47.218-220.06-85.721
	c-18.33-10.157-35.681-21.598-51.032-35.968c-2.253-2.107-5.273-3.395-7.94-5.062"/>
<path fill="none" stroke="#000000" stroke-linecap="round" stroke-linejoin="round" stroke-miterlimit="10" d="M1262.974,1635.546
	c0,0-1.441,15.478-1.713,17.737c-2.528,21.014-6.086,41.939-7.723,63.018c-2.426,31.271-4.23,62.627-4.933,93.979
	c-0.425,18.965,0.24,38.215,3.063,56.938c5.131,34.016,9.57,68.396,24.621,100.061c0.389,0.814,0.049,1.977,0.049,2.976"/>
<g>
	<path fill="none" stroke="#000000" stroke-linecap="round" stroke-linejoin="round" stroke-miterlimit="10" d="M1687.221,2044.487
		c9.63,2.654,18.628,7.483,29.063,5.756"/>
	<path fill="none" stroke="#000000" stroke-linecap="round" stroke-linejoin="round" stroke-miterlimit="10" d="M1033.367,1790.228"
		/>
</g>
<g>
	<path fill="none" stroke="#000000" stroke-linecap="round" stroke-linejoin="round" stroke-miterlimit="10" d="M330.463,2050.242"
		/>
</g>
<g>
	<path fill="none" stroke="#000000" stroke-linecap="round" stroke-linejoin="round" stroke-miterlimit="10" d="M359.528,2044.486
		c-9.63,2.655-18.628,7.483-29.063,5.756"/>
	<path fill="none" stroke="#000000" stroke-linecap="round" stroke-linejoin="round" stroke-miterlimit="10" d="M1013.38,1790.228"
		/>
</g>
<path fill="none" stroke="#000000" stroke-linecap="round" stroke-linejoin="round" stroke-miterlimit="10" d="M1023.373,170.891"/>
<path fill="none" stroke="#000000" stroke-linecap="round" stroke-linejoin="round" stroke-miterlimit="10" d="M330.463,2050.243
	c16.878,2.37,31.353-6.714,46.918-10.325c44.875-10.408,89.698-21.28,133.991-33.904c75.975-21.655,150.567-47.218,220.06-85.721
	c18.33-10.157,35.681-21.598,51.032-35.968c2.253-2.107,5.273-3.395,7.94-5.062"/>
<path fill="none" stroke="#000000" stroke-linecap="round" stroke-linejoin="round" stroke-miterlimit="10" d="M783.775,1635.546
	c0,0,1.441,15.478,1.713,17.737c2.528,21.014,6.086,41.939,7.723,63.018c2.426,31.271,4.23,62.627,4.933,93.979
	c0.425,18.965-0.24,38.215-3.063,56.938c-5.13,34.016-9.569,68.396-24.62,100.061c-0.389,0.814-0.05,1.977-0.05,2.976"/>
<g>
	<path fill="none" stroke="#000000" stroke-linecap="round" stroke-linejoin="round" stroke-miterlimit="10" d="M359.528,2044.487
		c-9.63,2.654-18.628,7.483-29.063,5.756"/>
	<path fill="none" stroke="#000000" stroke-linecap="round" stroke-linejoin="round" stroke-miterlimit="10" d="M1013.38,1790.228"
		/>
</g>
<g>
	<path fill="none" stroke="#000000" stroke-linecap="round" stroke-linejoin="round" stroke-miterlimit="10" d="M1023.373,255.083
		c-13.084,0-26.418,0.167-53.995,2.333c-27.578,2.166-73.668,6.493-145.043,34.88c-49.932,19.86-94.337,47.837-134.027,84.035
		c-49.551,45.19-85.357,99.806-110.581,161.222c-22.715,55.31-35.48,113.365-42.509,172.831
		c-5.782,48.923-8.866,77.238-0.47,146.115c8.396,68.877,13.062,105.305,36.016,228.374s55.588,291.476,55.588,291.476
		c11.812,39.654,22.075,79.736,40.874,117.062c16.493,32.749,37.985,61.78,62.334,88.76c16.565,18.354,51.897,53.075,51.897,53.075
		s10.241,9.701,11.899,11.104c14.08,11.902,27.763,24.291,42.095,35.874c41.996,33.94,83.479,68.674,131.002,94.929
		c16.897,9.336,31.997,13.075,54.921,13.075c22.923,0,38.021-3.739,54.921-13.075c47.521-26.255,89.005-60.987,131.001-94.929
		c14.333-11.583,28.015-23.972,42.095-35.874c1.658-1.401,11.9-11.104,11.9-11.104s35.332-34.721,51.896-53.075
		c24.35-26.979,45.841-56.011,62.334-88.76c18.799-37.324,29.063-77.406,40.874-117.062c0,0,32.634-168.406,55.588-291.476
		c22.954-123.07,27.62-159.496,36.017-228.373c8.396-68.877,5.313-97.192-0.471-146.115
		c-7.026-59.466-19.794-117.521-42.509-172.831c-25.224-61.416-61.03-116.031-110.581-161.222
		c-39.689-36.198-84.097-64.175-134.027-84.035c-71.375-28.387-117.465-32.713-145.043-34.88S1036.457,255.083,1023.373,255.083z"/>
	<path fill="none" stroke="#000000" stroke-linecap="round" stroke-linejoin="round" stroke-miterlimit="10" d="M1716.284,2050.242"
		/>
</g>
<g>
	<path fill="none" stroke="#000000" stroke-linecap="round" stroke-linejoin="round" stroke-miterlimit="10" d="M1687.221,2044.486
		c9.63,2.655,18.628,7.483,29.063,5.756"/>
	<path fill="none" stroke="#000000" stroke-linecap="round" stroke-linejoin="round" stroke-miterlimit="10" d="M1033.367,1790.228"
		/>
</g>
<path fill="none" stroke="#000000" stroke-linecap="round" stroke-linejoin="round" stroke-miterlimit="10" d="M1023.373,170.891"/>
</svg>
